Coordinates
version=1
nRows=21
nColumns=12
inDegrees=yes

Units are S.I. units (second, meters, Newtons, ...)
Angles are in degrees

endheader
time	SC_y	SC_z	SC_x	AC_y	AC_z	AC_x	GH_y	GH_z	GH_yy	EL_x	PS_y
       0.0              -35.22          20.83          3.399          31.18          9.188        -0.5844         -84.41          78.96          93.81           75.3          78.59
   0.03213              -35.22          20.83          3.407          31.18          9.185        -0.5861         -84.39          78.96          93.81           75.3          78.58
   0.06427              -35.22          20.83          3.414          31.18          9.181        -0.5878         -84.36          78.96          93.82          75.29          78.58
    0.0964              -35.22          20.83          3.422          31.19          9.177        -0.5896         -84.33          78.96          93.82          75.29          78.58
    0.1285              -35.22          20.83          3.431          31.19          9.173        -0.5915         -84.29          78.97          93.82          75.29          78.58
    0.1607              -35.23          20.83           3.44          31.19          9.169        -0.5936         -84.26          78.97          93.82          75.29          78.57
    0.1928              -35.23          20.83           3.45           31.2          9.164        -0.5958         -84.22          78.97          93.82          75.28          78.57
    0.2249              -35.23          20.82          3.461           31.2          9.159        -0.5982         -84.18          78.97          93.83          75.28          78.56
    0.2571              -35.23          20.82          3.472          31.21          9.154        -0.6007         -84.14          78.97          93.83          75.28          78.56
    0.2892              -35.23          20.82          3.485          31.21          9.148        -0.6034         -84.09          78.97          93.83          75.27          78.55
    0.3213              -35.23          20.82          3.498          31.22          9.142        -0.6063         -84.04          78.97          93.83          75.27          78.55
    0.3535              -35.23          20.82          3.512          31.22          9.135        -0.6095         -83.99          78.97          93.84          75.27          78.54
    0.3856              -35.24          20.82          3.527          31.23          9.128        -0.6129         -83.93          78.97          93.84          75.26          78.54
    0.4178              -35.24          20.82          3.543          31.23           9.12        -0.6165         -83.86          78.97          93.84          75.26          78.53
    0.4499              -35.24          20.82          3.561          31.24          9.112        -0.6205          -83.8          78.98          93.85          75.25          78.53
     0.482              -35.24          20.82           3.58          31.25          9.103        -0.6247         -83.72          78.98          93.85          75.25          78.52
    0.5142              -35.25          20.82          3.601          31.26          9.093        -0.6294         -83.64          78.98          93.86          75.24          78.51
    0.5463              -35.25          20.81          3.624          31.27          9.082        -0.6345         -83.56          78.98          93.86          75.24           78.5
    0.5784              -35.25          20.81          3.649          31.28           9.07          -0.64         -83.46          78.98          93.87          75.23          78.49
    0.6106              -35.25          20.81          3.676          31.29          9.057        -0.6461         -83.36          78.98          93.87          75.22          78.48
    0.6427              -35.26          20.81          3.706           31.3          9.043        -0.6528         -83.24          78.99          93.88          75.21          78.47
